<?xml version="1.0" encoding="utf-8"?>
<!-- Generator: Adobe Illustrator 27.5.0, SVG Export Plug-In . SVG Version: 6.00 Build 0)  -->
<svg version="1.1" xmlns="http://www.w3.org/2000/svg" xmlns:xlink="http://www.w3.org/1999/xlink" x="0px" y="0px"
	 viewBox="0 0 500 500" style="enable-background:new 0 0 500 500;" xml:space="preserve">
<g id="Shadow">
	<path style="fill:#92E3A9;" d="M333.794,391.945H166.206c-35.868,3.45-59.206,9.057-59.206,15.388
		c0,10.488,64.023,11.816,143,11.816s143-1.329,143-11.816C393,401.002,369.662,395.395,333.794,391.945z"/>
</g>
<g id="Floor">
	
		<line style="fill:none;stroke:#263238;stroke-linecap:round;stroke-linejoin:round;stroke-miterlimit:10;" x1="43.22" y1="392.212" x2="456.78" y2="392.212"/>
</g>
<g id="Background">
	<g>
		<path style="fill:#92E3A9;" d="M404.639,156.408c-42.294-21.489-75.152,4.387-89.978,17.464
			c-24.28,21.416-37.928,31.041-59.857,20.292c-22.896-11.222-20.196-33.331-32.556-64.601
			c-14.396-36.42-59.12-60.051-115.341-27.018C43.871,139.584,44.483,213.737,77.03,286.713
			c18.607,41.721,48.669,64.881,102.582,82.84c93.993,31.311,184.748,0.117,240.848-63.651
			C452.296,269.714,474.323,191.813,404.639,156.408z"/>
		<path style="opacity:0.7;fill:#FFFFFF;" d="M404.639,156.408c-42.294-21.489-75.152,4.387-89.978,17.464
			c-24.28,21.416-37.928,31.041-59.857,20.292c-22.896-11.222-20.196-33.331-32.556-64.601
			c-14.396-36.42-59.12-60.051-115.341-27.018C43.871,139.584,44.483,213.737,77.03,286.713
			c18.607,41.721,48.669,64.881,102.582,82.84c93.993,31.311,184.748,0.117,240.848-63.651
			C452.296,269.714,474.323,191.813,404.639,156.408z"/>
	</g>
</g>
<g id="Plant">
	<g>
		<g>
			<g>
				<path style="fill:#92E3A9;" d="M252.324,374.41c1.157,2.205,4.434,1.691,4.841-0.766c1.87-11.284,8.544-33.49,32.249-56.383
					c22.352-21.585-10.726-44.228-27.893-26.805C243.02,309.234,236.955,345.115,252.324,374.41z"/>
				
					<path style="fill:none;stroke:#263238;stroke-width:0.75;stroke-linecap:round;stroke-linejoin:round;stroke-miterlimit:10;" d="
					M269.285,309.717c0,0-22.997,29.634-12.295,80.89"/>
				
					<path style="fill:none;stroke:#263238;stroke-width:0.75;stroke-linecap:round;stroke-linejoin:round;stroke-miterlimit:10;" d="
					M264.327,318.057c0,0,7.887-5.799,23.206-3.953"/>
				
					<path style="fill:none;stroke:#263238;stroke-width:0.75;stroke-linecap:round;stroke-linejoin:round;stroke-miterlimit:10;" d="
					M260.697,296.743c0,0-5.073,14.456,0.201,29.14"/>
				
					<path style="fill:none;stroke:#263238;stroke-width:0.75;stroke-linecap:round;stroke-linejoin:round;stroke-miterlimit:10;" d="
					M256.393,341.422c0,0,4.427-7.963,13.986-8.039"/>
				
					<path style="fill:none;stroke:#263238;stroke-width:0.75;stroke-linecap:round;stroke-linejoin:round;stroke-miterlimit:10;" d="
					M254.796,351.723c0,0-5.967-6.295-7.828-17.457"/>
			</g>
			<g>
				<g>
					<path style="fill:#92E3A9;" d="M261.056,373.018c0.075,1.78,2.354,2.448,3.367,0.983c4.656-6.732,15.757-19.068,38.09-26.646
						c21.059-7.146,6.563-31.902-9.868-25.867C274.937,327.992,260.055,349.364,261.056,373.018z"/>
					<path style="opacity:0.2;" d="M261.056,373.018c0.075,1.78,2.354,2.448,3.367,0.983c4.656-6.732,15.757-19.068,38.09-26.646
						c21.059-7.146,6.563-31.902-9.868-25.867C274.937,327.992,260.055,349.364,261.056,373.018z"/>
				</g>
				
					<path style="fill:none;stroke:#263238;stroke-width:0.75;stroke-linecap:round;stroke-linejoin:round;stroke-miterlimit:10;" d="
					M291.79,336.325c0,0-23.934,12.158-32.659,48.601"/>
				
					<path style="fill:none;stroke:#263238;stroke-width:0.75;stroke-linecap:round;stroke-linejoin:round;stroke-miterlimit:10;" d="
					M286.034,340.209c0,0,6.876-1.345,16.227,4.528"/>
				
					<path style="fill:none;stroke:#263238;stroke-width:0.75;stroke-linecap:round;stroke-linejoin:round;stroke-miterlimit:10;" d="
					M290.193,325.305c0,0-7.698,7.807-8.768,18.922"/>
				
					<path style="fill:none;stroke:#263238;stroke-width:0.75;stroke-linecap:round;stroke-linejoin:round;stroke-miterlimit:10;" d="
					M273.764,352.909c0,0,5.297-3.802,11.507-0.932"/>
				
					<path style="fill:none;stroke:#263238;stroke-width:0.75;stroke-linecap:round;stroke-linejoin:round;stroke-miterlimit:10;" d="
					M269.585,359.089c0,0-1.94-5.897,0.264-13.689"/>
			</g>
			<g>
				<path style="fill:#92E3A9;" d="M247.948,373.643c-0.292,1.993-2.932,2.478-3.901,0.712c-4.45-8.113-15.493-23.278-39.721-34.404
					c-22.845-10.491-3.659-36.636,14.113-27.934C237.593,321.396,251.834,347.163,247.948,373.643z"/>
				<path style="opacity:0.2;fill:#FFFFFF;" d="M247.948,373.643c-0.292,1.993-2.932,2.478-3.901,0.712
					c-4.45-8.113-15.493-23.278-39.721-34.404c-22.845-10.491-3.659-36.636,14.113-27.934
					C237.593,321.396,251.834,347.163,247.948,373.643z"/>
				<g>
					
						<path style="fill:none;stroke:#263238;stroke-width:0.75;stroke-linecap:round;stroke-linejoin:round;stroke-miterlimit:10;" d="
						M217.671,328.801c0,0,25.494,16.462,31.053,58.457"/>
					
						<path style="fill:none;stroke:#263238;stroke-width:0.75;stroke-linecap:round;stroke-linejoin:round;stroke-miterlimit:10;" d="
						M223.69,333.839c0,0-7.574-2.315-18.774,3.198"/>
					
						<path style="fill:none;stroke:#263238;stroke-width:0.75;stroke-linecap:round;stroke-linejoin:round;stroke-miterlimit:10;" d="
						M220.753,316.596c0,0,7.745,9.676,7.652,22.299"/>
					
						<path style="fill:none;stroke:#263238;stroke-width:0.75;stroke-linecap:round;stroke-linejoin:round;stroke-miterlimit:10;" d="
						M236.005,349.55c0,0-5.512-4.893-12.83-2.39"/>
					
						<path style="fill:none;stroke:#263238;stroke-width:0.75;stroke-linecap:round;stroke-linejoin:round;stroke-miterlimit:10;" d="
						M239.984,356.986c0,0,2.869-6.404,1.3-15.423"/>
				</g>
			</g>
		</g>
		<polygon style="fill:#263238;" points="233.935,392.479 271.771,392.479 274.066,382.342 231.639,382.342 		"/>
		<polygon style="opacity:0.3;fill:#FFFFFF;" points="233.935,392.479 271.771,392.479 274.066,382.342 231.639,382.342 		"/>
	</g>
</g>
<g id="Scooter">
	<g>
		<g>
			<path style="fill:#FFFFFF;stroke:#263238;stroke-linecap:round;stroke-linejoin:round;stroke-miterlimit:10;" d="
				M105.724,255.037c0.479-0.605,0.776-1.361,0.776-2.192c0-1.963-1.591-3.554-3.554-3.554c-1.963,0-26.278,0-28.241,0
				c-1.963,0-3.554,1.591-3.554,3.554c0,1.963,1.591,3.554,3.554,3.554c1.121,0,27.12,0,28.241,0c1.121,0,2.109-0.53,2.76-1.34
				h0.018V255.037z"/>
			<path style="fill:#FFFFFF;stroke:#263238;stroke-linecap:round;stroke-linejoin:round;stroke-miterlimit:10;" d="
				M106.501,252.845c0,1.963-1.591,3.554-3.554,3.554c-1.963,0-3.554-1.591-3.554-3.554c0-1.963,1.591-3.554,3.554-3.554
				C104.91,249.291,106.501,250.882,106.501,252.845z"/>
			<path style="fill:#92E3A9;stroke:#263238;stroke-linecap:round;stroke-linejoin:round;stroke-miterlimit:10;" d="M94.641,252.845
				c0-1.963,1.591-3.554,3.554-3.554c-5.199,0-13.389,0-18.63,0c-1.963,0-3.554,1.591-3.554,3.554c0,1.963,1.591,3.554,3.554,3.554
				c5.225,0,13.447,0,18.63,0C96.232,256.399,94.641,254.808,94.641,252.845z"/>
		</g>
		<g>
			
				<ellipse transform="matrix(0.1602 -0.9871 0.9871 0.1602 -305.5007 405.9914)" style="fill:#263238;stroke:#263238;stroke-linecap:round;stroke-linejoin:round;stroke-miterlimit:10;" cx="85.842" cy="382.532" rx="9.947" ry="9.947"/>
			
				<ellipse transform="matrix(0.2298 -0.9732 0.9732 0.2298 -304.7665 379.9756)" style="fill:#999999;stroke:#263238;stroke-linecap:round;stroke-linejoin:round;stroke-miterlimit:10;" cx="87.676" cy="382.532" rx="9.947" ry="9.947"/>
			<path style="fill:#92E3A9;stroke:#263238;stroke-linecap:round;stroke-linejoin:round;stroke-miterlimit:10;" d="M92.526,382.532
				c0,2.679-2.171,4.85-4.85,4.85c-2.678,0-4.85-2.171-4.85-4.85c0-2.679,2.172-4.85,4.85-4.85
				C90.355,377.682,92.526,379.853,92.526,382.532z"/>
			
				<ellipse transform="matrix(0.1594 -0.9872 0.9872 0.1594 -215.1605 501.5363)" style="fill:#263238;stroke:#263238;stroke-linecap:round;stroke-linejoin:round;stroke-miterlimit:10;" cx="186.932" cy="377.115" rx="15.365" ry="15.365"/>
			
				<ellipse transform="matrix(0.2283 -0.9736 0.9736 0.2283 -221.4118 474.9067)" style="fill:#999999;stroke:#263238;stroke-linecap:round;stroke-linejoin:round;stroke-miterlimit:10;" cx="188.854" cy="377.115" rx="15.365" ry="15.365"/>
			
				<circle style="fill:#92E3A9;stroke:#263238;stroke-linecap:round;stroke-linejoin:round;stroke-miterlimit:10;" cx="188.854" cy="377.115" r="7.491"/>
			<g>
				<path style="fill:#999999;stroke:#263238;stroke-linecap:round;stroke-linejoin:round;stroke-miterlimit:10;" d="M87.893,384.76
					c-1.23,0-2.228-0.997-2.228-2.228V256.447c0-1.23,0.997-2.227,2.228-2.227c1.23,0,2.228,0.998,2.228,2.227v126.085
					C90.12,383.762,89.122,384.76,87.893,384.76z"/>
			</g>
			<path style="fill:#858585;stroke:#263238;stroke-linecap:round;stroke-linejoin:round;stroke-miterlimit:10;" d="
				M188.442,380.232H107.91c-0.876,0-1.716-0.348-2.336-0.967l-20.911-20.911c-0.526-0.526-0.821-1.239-0.821-1.982l0,0
				c0-2.472,2.966-3.734,4.747-2.02l19.068,18.351c0.615,0.592,1.436,0.923,2.29,0.923h78.494c1.824,0,3.303,1.479,3.303,3.303l0,0
				C191.745,378.753,190.266,380.232,188.442,380.232z"/>
			<path style="fill:#92E3A9;stroke:#263238;stroke-linecap:round;stroke-linejoin:round;stroke-miterlimit:10;" d="
				M166.057,373.626h-55.005c-0.898,0-1.626-0.728-1.626-1.626l0,0c0-0.898,0.728-1.626,1.626-1.626h55.005
				c0.898,0,1.626,0.728,1.626,1.626l0,0C167.684,372.898,166.956,373.626,166.057,373.626z"/>
		</g>
	</g>
</g>
<g id="Character_2">
	<g>
		<g>
			
				<path style="fill:#FFFFFF;stroke:#263238;stroke-width:1.0325;stroke-linecap:round;stroke-linejoin:round;stroke-miterlimit:10;" d="
				M294.358,327.301l1.212-11.607l-19.244,1.426v8.02c0,0-1.375,8.473-1.514,16.059c-0.125,6.805,2.815,36.275,3.412,42.174
				c-3.117,2.553-12.113,10.305-11.82,14.506c0.354,5.078,25.152,1.653,25.978-1.181c0.715-2.451-2.189-11.254-2.988-13.591
				C290.481,375.904,295.598,340.862,294.358,327.301z"/>
			
				<path style="fill:#92E3A9;stroke:#263238;stroke-width:1.0325;stroke-linecap:round;stroke-linejoin:round;stroke-miterlimit:10;" d="
				M286.359,386.189c-0.59-3.661-8.136-2.816-8.136-2.816c-3.117,2.553-12.113,10.305-11.82,14.506
				c0.354,5.078,25.152,1.653,25.978-1.181c0.715-2.451-2.189-11.254-2.988-13.591C288.354,383.588,286.95,389.849,286.359,386.189z
				"/>
			
				<path style="fill:#263238;stroke:#263238;stroke-width:1.0325;stroke-linecap:round;stroke-linejoin:round;stroke-miterlimit:10;" d="
				M292.382,396.698c0.229-0.785,0.085-2.225-0.241-3.892c0.571,2.566-14.169,5.545-20.778,4.955
				c-2.566-0.229-3.88-1.028-4.538-1.92c-0.305,0.736-0.464,1.425-0.422,2.038C266.758,402.957,291.555,399.532,292.382,396.698z"/>
			
				<path style="fill:#FFFFFF;stroke:#263238;stroke-width:0.7744;stroke-linecap:round;stroke-linejoin:round;stroke-miterlimit:10;" d="
				M290.128,389.745c0.159,1.047-0.105,1.956-0.588,2.029c-0.484,0.073-1.004-0.716-1.163-1.763
				c-0.159-1.047,0.105-1.956,0.588-2.029C289.449,387.909,289.969,388.698,290.128,389.745z"/>
			<g>
				
					<path style="fill:#FFFFFF;stroke:#263238;stroke-width:1.0325;stroke-linecap:round;stroke-linejoin:round;stroke-miterlimit:10;" d="
					M271.363,397.761c2.896,0.259,7.352-0.168,11.398-0.945c-0.717-2.549-2.575-6.793-7.029-6.938
					c-2.087-0.068-3.801,0.225-5.172,0.646c-1.65,1.819-3.052,3.69-3.727,5.327C267.493,396.738,268.806,397.533,271.363,397.761z"
					/>
			</g>
			
				<path style="fill:none;stroke:#263238;stroke-width:0.7744;stroke-linecap:round;stroke-linejoin:round;stroke-miterlimit:10;" d="
				M278.918,324.422c0,0,0.795,2.935,7.173,4.591"/>
		</g>
		<g>
			
				<path style="fill:#FFFFFF;stroke:#263238;stroke-width:1.0325;stroke-linecap:round;stroke-linejoin:round;stroke-miterlimit:10;" d="
				M310.17,327.301l-1.212-11.607l19.244,1.426v8.02c0,0,1.375,8.473,1.514,16.059c0.125,6.805-2.815,36.275-3.412,42.174
				c3.117,2.553,12.113,10.305,11.82,14.506c-0.354,5.078-25.152,1.653-25.978-1.181c-0.715-2.451,2.189-11.254,2.988-13.591
				C314.047,375.904,308.93,340.862,310.17,327.301z"/>
			
				<path style="fill:#92E3A9;stroke:#263238;stroke-width:1.0325;stroke-linecap:round;stroke-linejoin:round;stroke-miterlimit:10;" d="
				M318.169,386.189c0.591-3.661,8.136-2.816,8.136-2.816c3.117,2.553,12.113,10.305,11.82,14.506
				c-0.354,5.078-25.152,1.653-25.978-1.181c-0.715-2.451,2.189-11.254,2.988-13.591
				C316.174,383.588,317.579,389.849,318.169,386.189z"/>
			
				<path style="fill:#263238;stroke:#263238;stroke-width:1.0325;stroke-linecap:round;stroke-linejoin:round;stroke-miterlimit:10;" d="
				M312.147,396.698c-0.229-0.785-0.085-2.225,0.241-3.892c-0.571,2.566,14.169,5.545,20.778,4.955
				c2.566-0.229,3.88-1.028,4.538-1.92c0.305,0.736,0.464,1.425,0.422,2.038C337.771,402.957,312.973,399.532,312.147,396.698z"/>
			
				<path style="fill:#FFFFFF;stroke:#263238;stroke-width:0.7744;stroke-linecap:round;stroke-linejoin:round;stroke-miterlimit:10;" d="
				M314.4,389.745c-0.159,1.047,0.105,1.956,0.588,2.029c0.484,0.073,1.004-0.716,1.163-1.763c0.159-1.047-0.105-1.956-0.588-2.029
				C315.08,387.909,314.559,388.698,314.4,389.745z"/>
			<g>
				
					<path style="fill:#FFFFFF;stroke:#263238;stroke-width:1.0325;stroke-linecap:round;stroke-linejoin:round;stroke-miterlimit:10;" d="
					M333.165,397.761c-2.896,0.259-7.352-0.168-11.398-0.945c0.717-2.549,2.575-6.793,7.029-6.938
					c2.087-0.068,3.801,0.225,5.172,0.646c1.65,1.819,3.052,3.69,3.727,5.327C337.036,396.738,335.723,397.533,333.165,397.761z"/>
			</g>
			
				<path style="fill:none;stroke:#263238;stroke-width:0.7744;stroke-linecap:round;stroke-linejoin:round;stroke-miterlimit:10;" d="
				M326.099,324.422c0,0-0.795,2.935-7.173,4.591"/>
		</g>
		<g>
			
				<polygon style="fill:#92E3A9;stroke:#263238;stroke-width:1.0325;stroke-linecap:round;stroke-linejoin:round;stroke-miterlimit:10;" points="
				377.454,149.476 345.242,174.207 339.828,167.156 349.451,149.355 372.04,142.424 			"/>
			
				<path style="fill:#263238;stroke:#263238;stroke-width:1.0325;stroke-linecap:round;stroke-linejoin:round;stroke-miterlimit:10;" d="
				M346.526,176.766l-1.601,1.229c-0.651,0.5-1.584,0.377-2.083-0.274l-6.375-8.303c-0.122-0.159-0.199-0.349-0.221-0.549
				l-0.299-2.676c-0.092-0.824,0.725-1.452,1.498-1.15l2.508,0.98c0.187,0.073,0.351,0.196,0.473,0.356l6.375,8.303
				C347.3,175.334,347.177,176.266,346.526,176.766z"/>
			
				<path style="fill:#263238;stroke:#263238;stroke-width:1.0325;stroke-linecap:round;stroke-linejoin:round;stroke-miterlimit:10;" d="
				M380.992,150.305l-1.601,1.229c-0.651,0.5-1.584,0.377-2.083-0.274l-6.375-8.303c-0.122-0.159-0.199-0.349-0.221-0.549
				l-0.299-2.676c-0.092-0.825,0.725-1.452,1.498-1.15l2.508,0.98c0.187,0.073,0.351,0.196,0.473,0.356l6.375,8.303
				C381.765,148.872,381.642,149.805,380.992,150.305z"/>
			
				<path style="fill:#92E3A9;stroke:#263238;stroke-width:1.0325;stroke-linecap:round;stroke-linejoin:round;stroke-miterlimit:10;" d="
				M348.92,135.178c2.762,3.598,2.085,8.753-1.513,11.515c-3.598,2.762-8.753,2.085-11.515-1.513
				c-2.762-3.597-2.085-8.753,1.513-11.515C341.003,130.903,346.158,131.58,348.92,135.178z"/>
			
				<path style="fill:#263238;stroke:#263238;stroke-width:1.0325;stroke-linecap:round;stroke-linejoin:round;stroke-miterlimit:10;" d="
				M346.212,141.976l-5.033,3.864c-1.296,0.995-3.152,0.751-4.147-0.545l-0.956-1.246c-0.995-1.296-0.751-3.152,0.545-4.147
				l5.033-3.864c1.296-0.995,3.152-0.751,4.147,0.545l0.956,1.246C347.751,139.124,347.508,140.981,346.212,141.976z"/>
			
				<path style="fill:#92E3A9;stroke:#263238;stroke-width:1.0325;stroke-linecap:round;stroke-linejoin:round;stroke-miterlimit:10;" d="
				M356.163,128.476c-3.04,1.783,1.411,4.709,1.411,4.709c1.048,4.795-1.848,8.122-3.576,9.628c-1.059,0.069-2.11,0.44-3.015,1.135
				l-6.339,4.867c-0.855,0.656-1.451,1.518-1.803,2.458c-2.088,1.207-5.627,2.48-9.471,0.496c0,0-1.677-5.055-4.185-2.579
				c0,0-5.81-0.867-2.413,5.71c0,0,3.133,3.841,4.947,1.897c0,0,7.145,2.872,12.54,0.639l7.373,9.604
				c1.119,1.457,2.659,2.398,4.318,2.786c0.601,3.29,2.46,8.242,7.992,12.98c0.784,0.672,3.072,2.761,3.072,2.761
				s-4.065,3.606-1.094,5.898c0,0,5.763-4.548,8.14-9.169c0,0-10.024-5.879-12.154-13.537c0.151-0.1,0.304-0.198,0.45-0.311
				l2.5-1.919c1.992,2.608,5.377,5.652,11.033,7.661c0.973,0.346,3.858,1.475,3.858,1.475s-2.501,4.824,1.094,5.898
				c0,0,3.749-6.313,4.31-11.478c0,0-12.592-2.081-16.832-9.233c0.195-1.878-0.293-3.83-1.534-5.445l-7.239-9.429
				c4.363-4.487,3.313-13.089,3.313-13.089c2.347-1.251-0.555-5.269-0.555-5.269C356.826,122.64,356.163,128.476,356.163,128.476z"
				/>
			<g>
				<path style="fill:#92E3A9;" d="M339.669,142.056c0.361,0.471,0.392,1.054,0.068,1.302c-0.324,0.249-0.879,0.069-1.24-0.402
					c-0.361-0.471-0.392-1.054-0.068-1.302C338.752,141.406,339.307,141.586,339.669,142.056z"/>
				<path style="fill:#92E3A9;" d="M342.884,139.588c0.361,0.471,0.392,1.054,0.068,1.302c-0.324,0.249-0.879,0.069-1.24-0.402
					c-0.361-0.471-0.392-1.054-0.068-1.302C341.967,138.937,342.523,139.117,342.884,139.588z"/>
			</g>
			
				<path style="fill:#FFFFFF;stroke:#263238;stroke-width:0.7744;stroke-linecap:round;stroke-linejoin:round;stroke-miterlimit:10;" d="
				M359.501,155.198l-6.755,5.186c-0.905,0.695-2.202,0.524-2.897-0.38l-2.462-3.206c-0.695-0.905-0.524-2.202,0.381-2.897
				l6.755-5.186c0.905-0.695,2.202-0.524,2.897,0.381l2.462,3.206C360.576,153.206,360.406,154.503,359.501,155.198z"/>
			<g>
				
					<path style="fill:#FFFFFF;stroke:#263238;stroke-width:1.0325;stroke-linecap:round;stroke-linejoin:round;stroke-miterlimit:10;" d="
					M367.339,177.061c-1.915,2.254-3.845,3.454-5.19,4.072c0.551,0.558,1.145,1.116,1.793,1.671
					c0.784,0.672,3.072,2.761,3.072,2.761s-4.065,3.606-1.094,5.898c0,0,5.763-4.548,8.14-9.169
					C374.06,182.295,370.618,180.274,367.339,177.061z"/>
				
					<path style="fill:#FFFFFF;stroke:#263238;stroke-width:1.0325;stroke-linecap:round;stroke-linejoin:round;stroke-miterlimit:10;" d="
					M375.941,167.118c-1.271,2.542-2.781,4.354-3.821,5.423c1.129,0.597,2.378,1.154,3.768,1.648
					c0.973,0.346,3.858,1.475,3.858,1.475s-2.501,4.824,1.094,5.898c0,0,3.749-6.313,4.31-11.478
					C385.149,170.085,380.527,169.311,375.941,167.118z"/>
			</g>
			
				<path style="fill:#FFFFFF;stroke:#263238;stroke-width:1.0325;stroke-linecap:round;stroke-linejoin:round;stroke-miterlimit:10;" d="
				M336.463,152.73c-0.992-0.121-2.03-0.414-3.093-0.962c0,0-1.677-5.055-4.185-2.579c0,0-5.81-0.867-2.413,5.71
				c0,0,3.133,3.841,4.947,1.897c0,0,1.927,0.769,4.529,1.201C335.811,155.983,336.111,154.041,336.463,152.73z"/>
			
				<path style="fill:#FFFFFF;stroke:#263238;stroke-width:1.0325;stroke-linecap:round;stroke-linejoin:round;stroke-miterlimit:10;" d="
				M362.303,127.62c-5.477-4.98-6.14,0.856-6.14,0.856c-3.04,1.783,1.411,4.709,1.411,4.709c0.323,1.48,0.27,2.819-0.008,4.009
				c1.396,0.466,3.207,0.88,5.229,0.893c0.342-2.865,0.063-5.198,0.063-5.198C365.204,131.638,362.303,127.62,362.303,127.62z"/>
		</g>
		<g>
			
				<path style="fill:#FFFFFF;stroke:#263238;stroke-width:1.0325;stroke-linecap:round;stroke-linejoin:round;stroke-miterlimit:10;" d="
				M270.861,197.885c-2.795-3.948-8.002-10.067-14.713-15.745c0,0-4.646-7.744-19.101-20.908c0,0-0.165-16.786-3.097-17.036
				c-2.581-0.221,0.129,6.324-1.807,7.744c-1.678,1.231-8.776-9.416-10.325-7.806c-1.549,1.611,3.614,6.773,3.098,7.806
				c-0.516,1.033-6.969-4.646-8.002-3.872c-1.032,0.774,0,3.356,0,3.356s-2.581-1.205-1.893,0.86
				c0.688,2.065,5.335,3.442,5.335,4.818c0,1.377-5.052-1.549-5.451,0c-0.4,1.549,5.795,3.442,5.795,3.442s4.646,4.474,7.744,5.507
				c0,0,12.734,19.962,17.38,24.952c4.646,4.991,23.059,21.682,23.059,21.682l3.442-12.218
				C272.324,200.467,271.29,198.491,270.861,197.885z"/>
			
				<path style="fill:none;stroke:#263238;stroke-width:1.0325;stroke-linecap:round;stroke-linejoin:round;stroke-miterlimit:10;" d="
				M231.369,153.875c0,0-1.549,0.645-1.936,4.13"/>
			
				<path style="fill:none;stroke:#263238;stroke-width:1.0325;stroke-linecap:round;stroke-linejoin:round;stroke-miterlimit:10;" d="
				M218.333,151.552c0,0,2.452,2.839,4.904,3.614"/>
		</g>
		
			<path style="fill:#FFFFFF;stroke:#263238;stroke-width:1.0325;stroke-linecap:round;stroke-linejoin:round;stroke-miterlimit:10;" d="
			M324.809,200.016c0,0,6.969-4.97,14.971-6.777c0,0,0.476-2.716,2.359-6.462c1.883-3.745,5.174-8.521,6.675-12.64
			c0,0-9.034-4.646-8.518-8.002c0.516-3.356,5.521,2.384,6.969,1.714c4.312-1.997,5.968-0.416,6.969,1.033
			c0.704,1.018,1.76,3.302,2.591,4.219c0.559,0.617,2.036,1.543,2.431,2.276c0.133,0.247,0.229,0.784,0.294,1.28
			c0.084,0.648,0.019,1.3-0.205,1.914c-1.325,3.647-6.703,17.879-12.081,24.064c-6.195,7.124-18.069,10.05-18.069,10.05
			L324.809,200.016z"/>
		
			<path style="fill:#92E3A9;stroke:#263238;stroke-width:1.0325;stroke-linecap:round;stroke-linejoin:round;stroke-miterlimit:10;" d="
			M274.991,278.42c0,0-3.356-24.264-1.291-53.432l-6.247-6.426c-1.587-1.632-2.036-4.044-1.162-6.146
			c1.153-2.773,2.611-7.296,3.283-13.533c0.183-1.701,1.793-2.857,3.459-2.467c2.671,0.624,6.295,1.798,7.949,3.791
			c0,0,4.849-1.291,7.172,2.323c0,0,8.518,3.614,19.617,0c0,0,2.839-4.13,6.711-1.807c0,0,3.595-1.324,9.975-2.839
			c1.83-0.434,3.678,0.675,4.135,2.499c0.726,2.898,2.106,7.266,4.497,11.204c1.016,1.674,0.456,3.87-1.246,4.839
			c-2.44,1.389-5.73,3.54-8.3,6.238c0,0,3.329,35.363,3.329,53.948L274.991,278.42z"/>
		
			<path style="fill:#263238;stroke:#263238;stroke-width:1.0325;stroke-linecap:round;stroke-linejoin:round;stroke-miterlimit:10;" d="
			M280.983,276.032l6.929-0.192c0,0-5.177-43.882,0.244-73.308c-2.323-3.614-7.173-2.323-7.173-2.323
			S276.392,233.893,280.983,276.032z"/>
		
			<path style="fill:#263238;stroke:#263238;stroke-width:1.0325;stroke-linecap:round;stroke-linejoin:round;stroke-miterlimit:10;" d="
			M307.773,202.532c0,0,6.969,32.372,6.711,72.199h7.228c0,0,0.516-32.448-7.228-74.006
			C310.613,198.402,307.773,202.532,307.773,202.532z"/>
		
			<path style="fill:#263238;stroke:#263238;stroke-width:1.0325;stroke-linecap:round;stroke-linejoin:round;stroke-miterlimit:10;" d="
			M328.025,274.731c1.543,9.546,3.487,26.146,2.57,44.977c0,0-7.63,4.566-24.004,0c0,0-3.039-18.624-5.141-18.837
			s-3.046,18.837-3.046,18.837s-8.502,2.991-24.561,0c0,0-1.636-13.152-0.343-43.469L328.025,274.731z"/>
		<path style="fill:#92E3A9;" d="M288.156,283.086c0,1.842-1.493,3.336-3.336,3.336c-1.842,0-3.336-1.493-3.336-3.336
			c0-1.842,1.493-3.336,3.336-3.336C286.662,279.75,288.156,281.244,288.156,283.086z"/>
		<path style="fill:#92E3A9;" d="M321.418,283.086c0,1.842-1.493,3.336-3.336,3.336c-1.842,0-3.336-1.493-3.336-3.336
			c0-1.842,1.493-3.336,3.336-3.336C319.924,279.75,321.418,281.244,321.418,283.086z"/>
		<g>
			
				<path style="fill:#FFFFFF;stroke:#263238;stroke-width:1.0325;stroke-linecap:round;stroke-linejoin:round;stroke-miterlimit:10;" d="
				M289.593,203.088l-0.553-5.51c0,0-7.482-4.71-9.945-13.688c-2.463-8.977-2.325-18.306,7.931-22.482
				c10.256-4.176,21.42-6.842,26.938,5.719c5.517,12.561,4.245,33.562-8.541,35.193l0,0c0.363,1.594-0.712,3.148-2.33,3.386
				c-2.61,0.385-6.694,0.677-11.229-0.145C290.643,205.34,289.717,204.322,289.593,203.088z"/>
			
				<path style="fill:none;stroke:#263238;stroke-width:1.0325;stroke-linecap:round;stroke-linejoin:round;stroke-miterlimit:10;" d="
				M291.383,199.307c0,0,4.092,2.58,11.19,2.709"/>
			
				<path style="fill:none;stroke:#263238;stroke-width:1.0325;stroke-linecap:round;stroke-linejoin:round;stroke-miterlimit:10;" d="
				M308.657,178.784c0,1.731,2.57,3.323,2.305,5.033c-0.155,1.005-1.741,2.51-2.305,3.356c-0.251,0.376,0,1.807,0,1.807"/>
			<path style="fill:#263238;" d="M303.903,177.518c0.267,1.024,0.111,1.952-0.348,2.071c-0.459,0.119-1.047-0.614-1.314-1.638
				c-0.267-1.024-0.111-1.951,0.348-2.071C303.048,175.76,303.636,176.494,303.903,177.518z"/>
			<path style="fill:#263238;" d="M313.652,175.739c0.267,1.024,0.111,1.951-0.348,2.071c-0.459,0.12-1.047-0.614-1.314-1.638
				c-0.267-1.024-0.111-1.952,0.348-2.071C312.797,173.981,313.386,174.715,313.652,175.739z"/>
			
				<path style="fill:none;stroke:#263238;stroke-width:1.0325;stroke-linecap:round;stroke-linejoin:round;stroke-miterlimit:10;" d="
				M298.96,190.142c0,0,3.786,3.453,8.862,1.597"/>
			
				<path style="fill:none;stroke:#263238;stroke-width:1.0325;stroke-linecap:round;stroke-linejoin:round;stroke-miterlimit:10;" d="
				M298.144,176.125c0,0,1.323-2.871,4.165-2.773"/>
			
				<path style="fill:none;stroke:#263238;stroke-width:1.0325;stroke-linecap:round;stroke-linejoin:round;stroke-miterlimit:10;" d="
				M313.377,172.959c0,0-0.937-1.728-3.685-0.896"/>
			
				<path style="fill:#263238;stroke:#263238;stroke-width:1.0325;stroke-linecap:round;stroke-linejoin:round;stroke-miterlimit:10;" d="
				M287.258,159.941c0,0-3.614-10.841,2.237-11.702C295.346,147.379,288.291,151.939,287.258,159.941z"/>
			
				<path style="fill:#263238;stroke:#263238;stroke-width:1.0325;stroke-linecap:round;stroke-linejoin:round;stroke-miterlimit:10;" d="
				M280.719,183c0,0,9.126-6.643,7.717-14.118c0,0,1.636,5.428,15.803,1.384c14.167-4.044,14.92,0.907,14.92,0.907
				s-2.818-31.882-31.697-12.756c0,0-16.611,4.019-15.42,14C273.233,182.398,280.719,183,280.719,183z"/>
			
				<path style="fill:#FFFFFF;stroke:#263238;stroke-width:1.0325;stroke-linecap:round;stroke-linejoin:round;stroke-miterlimit:10;" d="
				M284.935,181.538c0,0-8.26-3.83-7.41,3.786c0.87,7.79,8.376,5.249,8.376,5.249"/>
			<path style="fill:none;stroke:#7F7F7F;stroke-width:0.7744;stroke-linecap:round;stroke-linejoin:round;" d="M276.991,175.866
				c0.174,0.912,0.431,1.884,0.784,2.918"/>
			<path style="fill:none;stroke:#7F7F7F;stroke-width:0.7744;stroke-linecap:round;stroke-linejoin:round;" d="M284.961,162.44
				c0,0-8.105,1.917-8.257,10.278"/>
			<path style="fill:none;stroke:#7F7F7F;stroke-width:0.7744;stroke-linecap:round;stroke-linejoin:round;" d="M314.147,162.885
				c0.454,0.707,0.887,1.484,1.294,2.338"/>
			<path style="fill:none;stroke:#7F7F7F;stroke-width:0.7744;stroke-linecap:round;stroke-linejoin:round;" d="M288.973,161.361
				c0,0,14.85-10.677,23.748-0.392"/>
			<path style="fill:none;stroke:#7F7F7F;stroke-width:0.7744;stroke-linecap:round;stroke-linejoin:round;" d="M282.992,169.5
				c-0.986,2.049-1.722,4.806-1.309,8.208"/>
			<path style="fill:none;stroke:#7F7F7F;stroke-width:0.7744;stroke-linecap:round;stroke-linejoin:round;" d="M286.155,165.223
				c0,0-0.696,0.567-1.546,1.663"/>
			<path style="fill:none;stroke:#7F7F7F;stroke-width:0.7744;stroke-linecap:round;stroke-linejoin:round;" d="M306.548,166.484
				c6.781-0.938,1.775-5.146-3.157-5.51"/>
			<path style="fill:none;stroke:#7F7F7F;stroke-width:0.7744;stroke-linecap:round;stroke-linejoin:round;" d="M290.661,164.071
				c0,0,5.066,2.78,13.165,2.602"/>
		</g>
	</g>
</g>
<g id="Character_1">
	<g>
		<g>
			<path style="fill:#FFFFFF;stroke:#263238;stroke-linecap:round;stroke-linejoin:round;stroke-miterlimit:10;" d="
				M222.791,260.651l4.563-4.951c0,0,0.492-8.672,1.007-11.516c0.383-2.114,2.301-8.28,2.301-8.28
				c0.133-0.477,0.712-0.66,1.095-0.346l0.37,0.304c0.564,0.463,0.845,1.187,0.741,1.909l-0.581,4.023l-0.023,2.879
				c-0.002,0.294,0.358,0.438,0.554,0.219c0.935-1.041,2.761-3.129,3.276-4.122c0.662-1.277,1.496-4.66,1.929-6.534
				c0.15-0.648,0.877-0.971,1.459-0.649l0.236,0.131c0.993,0.55,1.57,1.633,1.471,2.764l-0.063,0.716l1.009,1.34
				c0.561,0.744,0.726,1.714,0.442,2.602l-0.524,1.644l0.625,1.006c0.456,0.734,0.557,1.634,0.276,2.45l-0.475,1.38
				c-0.125,0.363-0.176,0.746-0.15,1.129l0.068,1.008c0.031,0.463-0.071,0.921-0.3,1.325c-0.939,1.66-3.673,6.207-6.856,8.866
				l-6.673,9.077L222.791,260.651z"/>
			<g>
				<defs>
					<path id="XMLID_31_" d="M161.584,276.943c0,0,7.58,0.164,21.526,2.503c13.604,2.281,40.921-21.518,40.921-21.518
						s3.171,5.148,7.301,9.05c0,0-18.049,27.579-37.73,30.59c-19.735,3.019-34.573-4.911-34.573-4.911
						S155.45,287.351,161.584,276.943z"/>
				</defs>
				<use xlink:href="#XMLID_31_"  style="overflow:visible;fill:#92E3A9;"/>
				<clipPath id="XMLID_00000159466742833291496100000008591499209772526989_">
					<use xlink:href="#XMLID_31_"  style="overflow:visible;"/>
				</clipPath>
				<path style="opacity:0.2;clip-path:url(#XMLID_00000159466742833291496100000008591499209772526989_);" d="M180.806,286.725
					c0,0,2.614,7.674,13.855,5.479c11.241-2.194,24.001-12.796,34.706-27.245c10.706-14.449,15.251,8.279,15.251,8.279
					l-10.659,12.226c0,0-11.286,11.286-19.75,14.264c-8.464,2.978,15.518,1.724-8.464,2.978
					c-23.982,1.254-23.982,1.254-23.982,1.254l-8.216-3.919L180.806,286.725z"/>
				<path style="opacity:0.2;clip-path:url(#XMLID_00000159466742833291496100000008591499209772526989_);" d="M194.679,282.28
					c-0.652-0.736-1.86-0.198-1.762,0.78c0.348,3.478,1.322,8.774,3.999,7.082C199.514,288.5,196.785,284.658,194.679,282.28z"/>
				
					<use xlink:href="#XMLID_31_"  style="overflow:visible;fill:none;stroke:#263238;stroke-linecap:round;stroke-linejoin:round;stroke-miterlimit:10;"/>
			</g>
			<path style="fill:#FFFFFF;stroke:#263238;stroke-linecap:round;stroke-linejoin:round;stroke-miterlimit:10;" d="M238.472,234.75
				c0,0-0.156,2.697,1.409,3.049c0,0-0.822,1.878,0.704,4.258c0,0-1.409,1.437,0,3.443c0,0-1.644,0.751-0.587,3.568
				c0.956,2.55-2.935,1.057-6.457,3.17"/>
		</g>
		<g>
			<path style="fill:#92E3A9;stroke:#263238;stroke-linecap:round;stroke-linejoin:round;stroke-miterlimit:10;" d="
				M233.956,198.658c0.397-0.351,0.766-0.734,1.095-1.15c1.719-2.168,8.231-9.656,12.867-5.111c5.383,5.279,0,13.668,0,13.668
				l-0.976-7.553l-1.401,6.574c0,0,1.778-12.56-9.808-5.161l-1.658,0.757l-0.827-1.398L233.956,198.658z"/>
			<path style="fill:#FFFFFF;stroke:#263238;stroke-linecap:round;stroke-linejoin:round;stroke-miterlimit:10;" d="
				M223.307,192.398c-7.564,0-12.018,5.818-12.018,12.994l-0.269,2.557c0,0-2.366,1.793,0.953,2.093c0.004,0,0.006,0,0.01,0
				c1.517,4.876,5.49,8.344,11.325,8.344c7.564,0,13.696-5.818,13.696-12.994C237.003,198.215,230.871,192.398,223.307,192.398z"/>
			<path style="fill:#92E3A9;stroke:#263238;stroke-linecap:round;stroke-linejoin:round;stroke-miterlimit:10;" d="
				M237.003,205.392c0-7.176-6.132-12.994-13.696-12.994c-5.66,0-9.577,3.258-11.191,7.904c1.059,2.104,2.89,4.805,5.646,5.834
				c0,0-0.466,6.401,3.099,10.277c0,0,4.179-2.239,8.32,0.703C233.801,215.029,237.003,210.571,237.003,205.392z"/>
			<path style="fill:#FFFFFF;stroke:#263238;stroke-linecap:round;stroke-linejoin:round;stroke-miterlimit:10;" d="M228.21,217.26
				l0.839,6.51h-8.817l0.839-6.51C221.071,217.26,223.813,215.499,228.21,217.26z"/>
			<path style="fill:#92E3A9;stroke:#263238;stroke-linecap:round;stroke-linejoin:round;stroke-miterlimit:10;" d="
				M217.603,199.058c-0.368-0.325-0.703-0.684-1.008-1.069c-1.705-2.153-8.232-9.675-12.876-5.122c-5.383,5.278,0,13.668,0,13.668
				l0.976-7.553l1.401,6.574c0,0-1.777-12.56,9.808-5.161l0.887,0.405c0.438,0.2,0.956,0.037,1.202-0.377l0,0
				c0.23-0.388,0.151-0.885-0.186-1.184L217.603,199.058z"/>
			<g>
				<g>
					<path style="fill:#FFFFFF;stroke:#263238;stroke-linecap:round;stroke-linejoin:round;stroke-miterlimit:10;" d="
						M214.972,222.709l-19.113-6.27c0,0-0.237-5.979-3.263-6.983c-3.026-1.004-8.17,3.479-4.876,7.298
						c3.294,3.819,4.271,3.88,4.271,3.88l18.541,9.397L214.972,222.709z"/>
					<path style="fill:none;stroke:#263238;stroke-linecap:round;stroke-linejoin:round;stroke-miterlimit:10;" d="M203.038,220.006
						c-0.871,0.465-1.898,1.496-2.516,3.758"/>
					<path style="fill:none;stroke:#263238;stroke-linecap:round;stroke-linejoin:round;stroke-miterlimit:10;" d="M194.923,216.695
						c-0.811,0.339-1.957,1.118-2.627,2.899"/>
				</g>
				<g>
					<defs>
						<path id="XMLID_35_" d="M217.288,222.216c0,0-11.458-6.432-8.977-0.593c0,0-3.649,0.733-1.637,4.648
							c0,0-4.066,1.69-0.637,3.712c3.429,2.021,6.148,1.882,6.148,1.882L217.288,222.216z"/>
					</defs>
					<use xlink:href="#XMLID_35_"  style="overflow:visible;fill:#92E3A9;"/>
					<clipPath id="XMLID_00000075872245434747289270000018159148124603233193_">
						<use xlink:href="#XMLID_35_"  style="overflow:visible;"/>
					</clipPath>
					<path style="opacity:0.5;clip-path:url(#XMLID_00000075872245434747289270000018159148124603233193_);fill:#FFFFFF;" d="
						M217.288,222.216c0,0-11.458-6.432-8.977-0.593c0,0-3.649,0.733-1.637,4.648c0,0-4.066,1.69-0.637,3.712
						c3.429,2.021,6.148,1.882,6.148,1.882L217.288,222.216z"/>
					
						<use xlink:href="#XMLID_35_"  style="overflow:visible;fill:none;stroke:#263238;stroke-linecap:round;stroke-linejoin:round;stroke-miterlimit:10;"/>
				</g>
			</g>
			<g>
				<g>
					<path style="fill:#FFFFFF;stroke:#263238;stroke-linecap:round;stroke-linejoin:round;stroke-miterlimit:10;" d="
						M233.257,223.249l19.197-6.009c0,0,0.318-5.975,3.358-6.938c3.04-0.963,8.122,3.59,4.776,7.364
						c-3.346,3.774-4.324,3.821-4.324,3.821l-18.667,9.144L233.257,223.249z"/>
					<path style="fill:none;stroke:#263238;stroke-linecap:round;stroke-linejoin:round;stroke-miterlimit:10;" d="M245.038,220.484
						c0.887,0.507,1.915,1.616,2.481,4.023"/>
					<path style="fill:none;stroke:#263238;stroke-linecap:round;stroke-linejoin:round;stroke-miterlimit:10;" d="M253.442,217.533
						c0.803,0.362,1.902,1.162,2.532,2.914"/>
				</g>
				<g>
					<defs>
						<path id="XMLID_36_" d="M231.927,222.216c0,0,11.458-6.432,8.977-0.593c0,0,3.649,0.733,1.637,4.648
							c0,0,4.066,1.69,0.637,3.712c-3.429,2.021-6.148,1.882-6.148,1.882L231.927,222.216z"/>
					</defs>
					<use xlink:href="#XMLID_36_"  style="overflow:visible;fill:#92E3A9;"/>
					<clipPath id="XMLID_00000011718929256718061820000011243285266952642455_">
						<use xlink:href="#XMLID_36_"  style="overflow:visible;"/>
					</clipPath>
					
						<path id="XMLID_37_" style="opacity:0.5;clip-path:url(#XMLID_00000011718929256718061820000011243285266952642455_);fill:#FFFFFF;" d="
						M231.927,222.216c0,0,11.458-6.432,8.977-0.593c0,0,3.649,0.733,1.637,4.648c0,0,4.066,1.69,0.637,3.712
						c-3.429,2.021-6.148,1.882-6.148,1.882L231.927,222.216z"/>
					
						<use xlink:href="#XMLID_36_"  style="overflow:visible;fill:none;stroke:#263238;stroke-linecap:round;stroke-linejoin:round;stroke-miterlimit:10;"/>
				</g>
			</g>
			<g>
				<path style="fill:#92E3A9;" d="M210.584,270.531c0,0-3.216,6.707-0.35,7.825c2.866,1.119,7.416-5.521,7.416-5.521
					s1.952,5.425,6.217,5.648c4.265,0.223,4.93-6.067,4.93-6.067s3.32,5.101,8.494,4.472c5.174-0.629,3.97-6.357,3.97-6.357
					l-8.012-3.501l-12.737-0.839l-6.706,1.328L210.584,270.531z"/>
				<path style="opacity:0.2;" d="M210.584,270.531c0,0-3.216,6.707-0.35,7.825c2.866,1.119,7.416-5.521,7.416-5.521
					s1.952,5.425,6.217,5.648c4.265,0.223,4.93-6.067,4.93-6.067s3.32,5.101,8.494,4.472c5.174-0.629,3.97-6.357,3.97-6.357
					l-8.012-3.501l-12.737-0.839l-6.706,1.328L210.584,270.531z"/>
			</g>
			<path style="fill:#FFFFFF;stroke:#263238;stroke-linecap:round;stroke-linejoin:round;stroke-miterlimit:10;" d="
				M213.101,264.762c0,0-1.554,13.385,2.509,30.164h6.019c0,0,0.884-18.8,0.722-30.164
				C222.351,264.762,219.088,262.429,213.101,264.762z"/>
			<path style="fill:#FFFFFF;stroke:#263238;stroke-linecap:round;stroke-linejoin:round;stroke-miterlimit:10;" d="
				M237.326,264.762c0,0,1.553,13.385-2.509,30.164h-6.019c0,0-0.884-18.8-0.722-30.164
				C228.075,264.762,231.339,262.429,237.326,264.762z"/>
			<path style="fill:#92E3A9;stroke:#263238;stroke-linecap:round;stroke-linejoin:round;stroke-miterlimit:10;" d="
				M213.241,299.749l2.126-5.855c0,0,2.089-2.011,6.308,0l0.695,5.855H213.241z"/>
			<path style="fill:#92E3A9;stroke:#263238;stroke-linecap:round;stroke-linejoin:round;stroke-miterlimit:10;" d="
				M237.168,299.749l-2.126-5.855c0,0-2.089-2.011-6.308,0l-0.695,5.855H237.168z"/>
			<path style="fill:#FFFFFF;stroke:#263238;stroke-linecap:round;stroke-linejoin:round;stroke-miterlimit:10;" d="
				M214.337,279.874c1.233-0.652,3.453-1.302,6.399,0.001"/>
			<path style="fill:#FFFFFF;stroke:#263238;stroke-linecap:round;stroke-linejoin:round;stroke-miterlimit:10;" d="
				M229.517,279.736c1.273-0.596,3.383-1.072,6.118,0.136"/>
			<g>
				<defs>
					<path id="XMLID_32_" d="M212.214,253.65c0,0-6.119,8.236-8.538,18.349c-2.418,10.113,10.632-0.77,10.632-0.77
						s-0.189,13.85,9.484,0.55c0,0,6.705,12.751,9.124-0.55c0,0,13.796,8.925,11.509-1.717c-1.675-7.796-7.442-15.863-7.442-15.863
						H212.214z"/>
				</defs>
				<use xlink:href="#XMLID_32_"  style="overflow:visible;fill:#92E3A9;"/>
				<clipPath id="XMLID_00000075164919827461621340000014361458785820060600_">
					<use xlink:href="#XMLID_32_"  style="overflow:visible;"/>
				</clipPath>
				<path style="opacity:0.5;clip-path:url(#XMLID_00000075164919827461621340000014361458785820060600_);fill:#FFFFFF;" d="
					M212.214,253.65c0,0-6.119,8.236-8.538,18.349c-2.418,10.113,10.632-0.77,10.632-0.77s-0.189,13.85,9.484,0.55
					c0,0,6.705,12.751,9.124-0.55c0,0,13.796,8.925,11.509-1.717c-1.675-7.796-7.442-15.863-7.442-15.863H212.214z"/>
				
					<use xlink:href="#XMLID_32_"  style="overflow:visible;fill:none;stroke:#263238;stroke-linecap:round;stroke-linejoin:round;stroke-miterlimit:10;"/>
			</g>
			<g>
				<defs>
					<path id="XMLID_38_" d="M224.706,221.128c-5.041,0.031-13.423-1.289-14.785,12.047c-1.134,11.105-0.87,17.57-0.585,20.573
						c0.119,1.248,1.058,2.263,2.293,2.483c3.849,0.683,12.996,1.788,25.645-0.024c1.437-0.206,2.486-1.474,2.413-2.923
						c-0.242-4.813-0.839-15.373-1.689-21.699C236.871,223.195,233.655,221.074,224.706,221.128z"/>
				</defs>
				<use xlink:href="#XMLID_38_"  style="overflow:visible;fill:#92E3A9;"/>
				<clipPath id="XMLID_00000083793746597955893060000013176260230449689010_">
					<use xlink:href="#XMLID_38_"  style="overflow:visible;"/>
				</clipPath>
				<path style="opacity:0.2;clip-path:url(#XMLID_00000083793746597955893060000013176260230449689010_);" d="M210.532,230.031
					c0,0,0.207,21.163,14.682,22.208c14.474,1.045,13.892-8.744,13.892-8.744l8.413-0.393c0,0,14.667,9.901,3.749,14.508
					c-10.918,4.607-10.918,4.607-10.918,4.607l-20.526,0.516l-14.164-2.118l-5.789-2.545l-4.948-12.229l1.58-9.466l11.808-9.914
					L210.532,230.031z"/>
				
					<use xlink:href="#XMLID_38_"  style="overflow:visible;fill:none;stroke:#263238;stroke-linecap:round;stroke-linejoin:round;stroke-miterlimit:10;"/>
			</g>
			<path style="fill:#92E3A9;" d="M207.491,272.065c-0.34,0.894-0.982,1.48-1.433,1.309c-0.451-0.172-0.541-1.036-0.201-1.93
				c0.34-0.894,0.982-1.48,1.433-1.309C207.741,270.306,207.831,271.17,207.491,272.065z"/>
			<path style="fill:#92E3A9;" d="M210.12,266.519c-0.271,0.918-0.866,1.551-1.328,1.414c-0.463-0.137-0.619-0.991-0.348-1.909
				c0.271-0.918,3.214-7.68,3.677-7.543C212.584,258.618,210.391,265.602,210.12,266.519z"/>
			<path style="fill:#92E3A9;" d="M238.528,266.016c0.31,0.905,0.932,1.512,1.388,1.356c0.457-0.156,0.575-1.017,0.265-1.922
				c-0.31-0.905-3.543-7.534-4-7.377C235.725,258.229,238.218,265.111,238.528,266.016z"/>
			<path style="fill:#92E3A9;" d="M218.514,272.973c-0.15,0.945-0.659,1.649-1.136,1.573c-0.477-0.076-0.741-0.903-0.59-1.848
				c0.151-0.945,0.659-1.649,1.136-1.573C218.4,271.201,218.664,272.028,218.514,272.973z"/>
			<path style="fill:#92E3A9;" d="M219.046,267.959c-0.105,0.951-0.579,1.679-1.058,1.626c-0.48-0.053-0.784-0.867-0.679-1.818
				c0.105-0.951,1.909-8.401,2.389-8.348C220.177,259.472,219.151,267.008,219.046,267.959z"/>
			<path style="fill:#92E3A9;" d="M227.039,267.402c0.105,0.951,0.579,1.679,1.058,1.626c0.48-0.053,0.784-0.867,0.679-1.818
				c-0.105-0.951-1.909-8.401-2.388-8.348C225.908,258.915,226.934,266.451,227.039,267.402z"/>
			<path style="fill:#92E3A9;" d="M229.661,272.285c0.143,0.946-0.128,1.771-0.605,1.844c-0.477,0.072-0.98-0.636-1.123-1.582
				c-0.143-0.946,0.128-1.771,0.605-1.844C229.015,270.631,229.518,271.339,229.661,272.285z"/>
			<path style="fill:#92E3A9;" d="M242.075,270.214c0.347,0.892,0.264,1.756-0.186,1.931c-0.45,0.175-1.096-0.406-1.443-1.298
				c-0.347-0.892-0.264-1.757,0.186-1.932C241.082,268.741,241.728,269.322,242.075,270.214z"/>
			<g>
				<defs>
					<ellipse id="XMLID_33_" cx="217.806" cy="299.749" rx="4.565" ry="2.168"/>
				</defs>
				<use xlink:href="#XMLID_33_"  style="overflow:visible;fill:#92E3A9;"/>
				<clipPath id="XMLID_00000036224787111407362770000014100546043343660728_">
					<use xlink:href="#XMLID_33_"  style="overflow:visible;"/>
				</clipPath>
				
					<ellipse style="opacity:0.3;clip-path:url(#XMLID_00000036224787111407362770000014100546043343660728_);" cx="217.806" cy="299.749" rx="4.565" ry="2.168"/>
				
					<use xlink:href="#XMLID_33_"  style="overflow:visible;fill:none;stroke:#263238;stroke-linecap:round;stroke-linejoin:round;stroke-miterlimit:10;"/>
			</g>
			<g>
				<defs>
					<path id="XMLID_34_" d="M228.038,299.749c0,1.197,2.044,2.168,4.565,2.168s4.565-0.971,4.565-2.168
						c0-1.198-2.044-2.168-4.565-2.168S228.038,298.551,228.038,299.749z"/>
				</defs>
				<use xlink:href="#XMLID_34_"  style="overflow:visible;fill:#92E3A9;"/>
				<clipPath id="XMLID_00000019668739184381327750000010884739976612500878_">
					<use xlink:href="#XMLID_34_"  style="overflow:visible;"/>
				</clipPath>
				<path style="opacity:0.3;clip-path:url(#XMLID_00000019668739184381327750000010884739976612500878_);" d="M228.038,299.749
					c0,1.197,2.044,2.168,4.565,2.168s4.565-0.971,4.565-2.168c0-1.198-2.044-2.168-4.565-2.168S228.038,298.551,228.038,299.749z"
					/>
				
					<use xlink:href="#XMLID_34_"  style="overflow:visible;fill:none;stroke:#263238;stroke-linecap:round;stroke-linejoin:round;stroke-miterlimit:10;"/>
			</g>
			<path style="fill:#FFFFFF;stroke:#263238;stroke-linecap:round;stroke-linejoin:round;stroke-miterlimit:10;" d="M216.294,205.71
				c0.455-0.644,1.049-1.004,1.622-0.898c0.983,0.181,1.534,1.662,1.231,3.308c-0.303,1.646-1.346,2.833-2.329,2.652"/>
		</g>
		<path style="fill:#263238;stroke:#263238;stroke-linecap:round;stroke-linejoin:round;stroke-miterlimit:10;" d="M137.685,225.79
			c-21.471,7.691-14.187,21.768-14.964,36.044c-1.115,20.492-23.49,38.918,0.43,55.19c-1.121-2.189-2.286-5.732-1.467-10.236
			c0,0,0.38,5.593,3.171,9.878c0.799,1.226,2.068,2.066,3.502,2.36c1.398,0.286,2.941,0.445,4.646,0.458
			c21.01,0.166,11.5-29.807,6.699-47.171c-1.718-6.214,0.514-10.48,0.514-10.48l-2.531-7.431c0,0,11.861-6.081,8.804-15.583
			c0,0,2.116,2.449,2.586,5.976c0,0,4.676-7.171,17.856-5.976C166.931,238.82,163.613,216.503,137.685,225.79z"/>
		<path style="fill:#FFFFFF;stroke:#263238;stroke-linecap:round;stroke-linejoin:round;stroke-miterlimit:10;" d="M191.71,257.022
			l5.956-5.251v-9.492c0-0.203,0.013-0.406,0.039-0.607l1.006-7.712c0.09-0.689,0.908-1.003,1.436-0.551l0.487,0.417
			c0.549,0.47,0.895,1.134,0.968,1.853l0.625,6.221l10.982-9.48c0.538-0.464,1.323-0.5,1.9-0.086l0,0
			c0.734,0.526,0.859,1.57,0.268,2.254l-5.563,6.446l10.042-5.472c0.557-0.303,1.247-0.2,1.691,0.253l0,0
			c0.567,0.579,0.533,1.515-0.074,2.052l-7.741,6.85l8.445-5.321c0.527-0.332,1.216-0.23,1.624,0.239l0,0
			c0.456,0.524,0.402,1.318-0.12,1.776l-7.605,6.676l6.185-3.731c0.463-0.279,1.063-0.14,1.356,0.314l0,0
			c0.265,0.411,0.194,0.954-0.169,1.282c0,0-6.013,6.009-8.364,7.566c-2.472,1.637-10.757,4.993-10.757,4.993l-5.486,5.721
			L191.71,257.022z"/>
		<g>
			<polygon style="fill:#FFFFFF;stroke:#263238;stroke-linecap:round;stroke-linejoin:round;stroke-miterlimit:10;" points="
				138.137,392.622 146.976,393.327 144.577,404.614 134.664,403.651 			"/>
			<path style="fill:#263238;stroke:#263238;stroke-linecap:round;stroke-linejoin:round;stroke-miterlimit:10;" d="
				M171.727,367.949l-35.685-8.381c0,0-9.75,26.291,24.023,32.147v0.533l-16.716-0.796l-2.371,13.841
				c0,0,58.031,10.071,59.879-3.078C203.015,386.862,171.727,367.949,171.727,367.949z"/>
			<path style="fill:#263238;stroke:#263238;stroke-linecap:round;stroke-linejoin:round;stroke-miterlimit:10;" d="M187.11,365.802
				c0,0,54.413,8.611,55.161,27.513c0.555,14.033-12.338,12.498-42.076,13.697h-26.141l9.609-14.645l22.194-0.595
				c0.377-0.01,0.414-0.559,0.039-0.608c-6.659-0.871-19.676-2.814-24.809-5.262c-7.034-3.354-15.602-14.386-15.602-14.386
				L187.11,365.802z"/>
			<g>
				
					<line style="fill:none;stroke:#7F7F7F;stroke-width:0.75;stroke-linecap:round;stroke-linejoin:round;" x1="163.884" y1="391.793" x2="179.587" y2="391.393"/>
				
					<line style="fill:none;stroke:#7F7F7F;stroke-width:0.75;stroke-linecap:round;stroke-linejoin:round;" x1="159.795" y1="391.932" x2="162.239" y2="391.87"/>
				<g>
					
						<line style="fill:none;stroke:#7F7F7F;stroke-width:0.75;stroke-linecap:round;stroke-linejoin:round;" x1="219.412" y1="389.691" x2="221.069" y2="389.53"/>
					
						<line style="fill:none;stroke:#7F7F7F;stroke-width:0.75;stroke-linecap:round;stroke-linejoin:round;" x1="209.159" y1="390.689" x2="216.604" y2="389.964"/>
				</g>
				<path style="fill:none;stroke:#7F7F7F;stroke-width:0.75;stroke-linecap:round;stroke-linejoin:round;" d="M200.858,402.215
					c0.639-4.546-1.655-9.404-5.2-13.99"/>
				<path style="fill:none;stroke:#7F7F7F;stroke-width:0.75;stroke-linecap:round;stroke-linejoin:round;" d="M197.549,406.234
					c0.941-0.499,1.709-1.077,2.271-1.743"/>
			</g>
			<path style="fill:#92E3A9;stroke:#263238;stroke-linecap:round;stroke-linejoin:round;stroke-miterlimit:10;" d="M131.99,389.492
				c-1.889-0.305-3.778,0.527-4.819,2.132c-1.185,1.828-3.012,4.383-5.411,6.957c-5.665,6.079-12.45,13.779-9.901,17.585
				c4.414,6.591,9.959-7.892,22.733-10.082c0.898-0.154,1.634-0.801,1.897-1.673l3.291-10.892c0.423-1.398-0.484-2.848-1.926-3.081
				L131.99,389.492z"/>
			
				<path style="fill:#FFFFFF;stroke:#263238;stroke-width:0.75;stroke-linecap:round;stroke-linejoin:round;stroke-miterlimit:10;" d="
				M131.99,389.492c-1.889-0.305-3.778,0.527-4.819,2.132c-1.185,1.828-3.012,4.383-5.412,6.957
				c-5.665,6.079-12.45,13.779-9.901,17.585c0.643,0.96,1.312,1.462,2.021,1.631c-0.141-1.67-0.021-4.377,1.561-7.188
				c2.573-4.568,9.989-11.032,11.788-13.191c1.799-2.158,4.006-7.724,6.475-7.488c0.225,0.022,0.407-0.013,0.57-0.07L131.99,389.492
				z"/>
		</g>
		<path style="fill:#92E3A9;stroke:#263238;stroke-linecap:round;stroke-linejoin:round;stroke-miterlimit:10;" d="M136.267,276.223
			c0,0-1.01-6.113,3.959-5.878c4.969,0.235,16.221,5.354,26.435-0.007c10.214-5.361,6.043,2.597,6.043,2.597l-23.159,6.462
			l-9.319-0.353L136.267,276.223z"/>
		<g>
			<defs>
				<path id="XMLID_30_" d="M132.264,245.893l3.919-12.579l10.189-1.998h10.426c0,0,11.377,4.216,11.965,18.036
					c0.026,0.604,0.207,1.198,0.579,1.674c1.494,1.91,5.051,8.209-1.59,19.202c0,0-5.61,4.499-17.971,4.499
					c-12.361,0-12.814-5.703-12.814-5.703L132.264,245.893z"/>
			</defs>
			<use xlink:href="#XMLID_30_"  style="overflow:visible;fill:#FFFFFF;"/>
			<clipPath id="XMLID_00000171681457123395671910000006753005973344567936_">
				<use xlink:href="#XMLID_30_"  style="overflow:visible;"/>
			</clipPath>
			<path style="opacity:0.2;clip-path:url(#XMLID_00000171681457123395671910000006753005973344567936_);" d="M140.216,261.834
				c0,0,0.015,15.297,22.192,10.999c22.177-4.297-10.456,13.728-10.456,13.728l-15.769-2.136l-10.534-8.209l1.097-7.734l7.053-6.649
				H140.216z"/>
			
				<use xlink:href="#XMLID_30_"  style="overflow:visible;fill:none;stroke:#263238;stroke-linecap:round;stroke-linejoin:round;stroke-miterlimit:10;"/>
		</g>
		<path style="fill:#FFFFFF;stroke:#263238;stroke-linecap:round;stroke-linejoin:round;stroke-miterlimit:10;" d="M164.474,247.559
			c0,0.996,2.336,1.876,3.199,2.373c1.12,0.645,1.226,2.249,0.413,3.254l-0.984,1.217"/>
		<path style="fill:#FFFFFF;stroke:#263238;stroke-linecap:round;stroke-linejoin:round;stroke-miterlimit:10;" d="M158.441,258.855
			c0,0,6.427,1.537,10.345-1.245l-0.718,5.754C168.068,263.364,162.986,265.234,158.441,258.855z"/>
		<path d="M159.011,246.791c0.292,0.94,0.072,1.845-0.492,2.02c-0.564,0.175-1.257-0.446-1.549-1.386
			c-0.292-0.941-0.072-1.845,0.492-2.02C158.026,245.23,158.719,245.851,159.011,246.791z"/>
		<path d="M167.599,246.88c0.222,0.714,0.102,1.385-0.267,1.5c-0.369,0.115-0.847-0.372-1.069-1.086
			c-0.221-0.714-0.102-1.385,0.267-1.5C166.899,245.68,167.378,246.166,167.599,246.88z"/>
		<path style="fill:#FFFFFF;stroke:#263238;stroke-linecap:round;stroke-linejoin:round;stroke-miterlimit:10;" d="M158.794,241.426
			c0,0-3.684-0.47-4.781,3.37"/>
		<path style="fill:#FFFFFF;stroke:#263238;stroke-linecap:round;stroke-linejoin:round;stroke-miterlimit:10;" d="M163.613,241.408
			c0,0,1.038-1.628,3.448,0.488"/>
		<path style="fill:#263238;stroke:#263238;stroke-linecap:round;stroke-linejoin:round;stroke-miterlimit:10;" d="M160.453,261.14
			c3.911,3.569,7.615,2.224,7.615,2.224l0.251-2.011C167.024,261.634,164.508,261.878,160.453,261.14z"/>
		<g>
			<defs>
				<path id="XMLID_29_" d="M137.841,355.961l-27.069,38.8c0,0,12.618-4.061,27.898-6.041c15.28-1.98,53.877-1.86,78.116-3.099
					s22.352-3.879,22.352-3.879l-48.17-28.009l-19.989,2.678l-21.025,0.008L137.841,355.961z"/>
			</defs>
			<use xlink:href="#XMLID_29_"  style="overflow:visible;fill:#92E3A9;"/>
			<clipPath id="XMLID_00000105416085932955772570000011890492513721673914_">
				<use xlink:href="#XMLID_29_"  style="overflow:visible;"/>
			</clipPath>
			<path style="opacity:0.7;clip-path:url(#XMLID_00000105416085932955772570000011890492513721673914_);fill:#FFFFFF;" d="
				M137.841,355.961l-27.069,38.8c0,0,12.618-4.061,27.898-6.041c15.28-1.98,53.877-1.86,78.116-3.099s22.352-3.879,22.352-3.879
				l-48.17-28.009l-19.989,2.678l-21.025,0.008L137.841,355.961z"/>
			
				<use xlink:href="#XMLID_29_"  style="overflow:visible;fill:none;stroke:#263238;stroke-linecap:round;stroke-linejoin:round;stroke-miterlimit:10;"/>
		</g>
		<g>
			<defs>
				<path id="XMLID_28_" d="M135.554,357.493c0,0-36.841,37.988-25.294,38.777c12.043,0.823,28.41-38.508,28.41-38.508v-1.716
					l-1.908-0.085L135.554,357.493z"/>
			</defs>
			<use xlink:href="#XMLID_28_"  style="overflow:visible;fill:#92E3A9;"/>
			<clipPath id="XMLID_00000071536066755318611650000015386125917341046936_">
				<use xlink:href="#XMLID_28_"  style="overflow:visible;"/>
			</clipPath>
			
				<path style="opacity:0.5;clip-path:url(#XMLID_00000071536066755318611650000015386125917341046936_);fill:#FFFFFF;stroke:#263238;stroke-linecap:round;stroke-linejoin:round;stroke-miterlimit:10;" d="
				M135.554,357.493c0,0-36.841,37.988-25.294,38.777c12.043,0.823,28.41-38.508,28.41-38.508v-1.716l-1.908-0.085L135.554,357.493z
				"/>
			
				<use xlink:href="#XMLID_28_"  style="overflow:visible;fill:none;stroke:#263238;stroke-linecap:round;stroke-linejoin:round;stroke-miterlimit:10;"/>
		</g>
		<g>
			<defs>
				<path id="XMLID_27_" d="M143.12,356.221c0,0-12.016,36.166-4.451,35.461c7.565-0.706,7.925-35.461,7.925-35.461H143.12z"/>
			</defs>
			<use xlink:href="#XMLID_27_"  style="overflow:visible;fill:#92E3A9;"/>
			<clipPath id="XMLID_00000075126218345625345850000005397751016655771525_">
				<use xlink:href="#XMLID_27_"  style="overflow:visible;"/>
			</clipPath>
			<path style="opacity:0.5;clip-path:url(#XMLID_00000075126218345625345850000005397751016655771525_);fill:#FFFFFF;" d="
				M143.12,356.221c0,0-12.016,36.166-4.451,35.461c7.565-0.706,7.925-35.461,7.925-35.461H143.12z"/>
			
				<use xlink:href="#XMLID_27_"  style="overflow:visible;fill:none;stroke:#263238;stroke-linecap:round;stroke-linejoin:round;stroke-miterlimit:10;"/>
		</g>
		<g>
			<defs>
				<path id="XMLID_26_" d="M152.47,356.468c0,0,0.56,32.87,7.595,32.87c7.035,0-3.798-33.116-3.798-33.116L152.47,356.468z"/>
			</defs>
			<use xlink:href="#XMLID_26_"  style="overflow:visible;fill:#92E3A9;"/>
			<clipPath id="XMLID_00000134246389528988713580000009912541940955925386_">
				<use xlink:href="#XMLID_26_"  style="overflow:visible;"/>
			</clipPath>
			<path style="opacity:0.5;clip-path:url(#XMLID_00000134246389528988713580000009912541940955925386_);fill:#FFFFFF;" d="
				M152.47,356.468c0,0,0.56,32.87,7.595,32.87c7.035,0-3.798-33.116-3.798-33.116L152.47,356.468z"/>
			
				<use xlink:href="#XMLID_26_"  style="overflow:visible;fill:none;stroke:#263238;stroke-linecap:round;stroke-linejoin:round;stroke-miterlimit:10;"/>
		</g>
		<g>
			<defs>
				<path id="XMLID_25_" d="M164.365,356.479c0,0,13.524,32.616,21.329,32.237c7.805-0.378-18.231-32.306-18.231-32.306
					L164.365,356.479z"/>
			</defs>
			<use xlink:href="#XMLID_25_"  style="overflow:visible;fill:#92E3A9;"/>
			<clipPath id="XMLID_00000060732592681131269380000004649698286867474054_">
				<use xlink:href="#XMLID_25_"  style="overflow:visible;"/>
			</clipPath>
			<path style="opacity:0.5;clip-path:url(#XMLID_00000060732592681131269380000004649698286867474054_);fill:#FFFFFF;" d="
				M164.365,356.479c0,0,13.524,32.616,21.329,32.237c7.805-0.378-18.231-32.306-18.231-32.306L164.365,356.479z"/>
			
				<use xlink:href="#XMLID_25_"  style="overflow:visible;fill:none;stroke:#263238;stroke-linecap:round;stroke-linejoin:round;stroke-miterlimit:10;"/>
		</g>
		<g>
			<defs>
				<path id="XMLID_24_" d="M176.672,355.961c0,0,28.897,32.74,40.795,31.49c11.898-1.25-37.658-31.754-37.658-31.754
					L176.672,355.961z"/>
			</defs>
			<use xlink:href="#XMLID_24_"  style="overflow:visible;fill:#92E3A9;"/>
			<clipPath id="XMLID_00000067933230694498316770000002062706099278976395_">
				<use xlink:href="#XMLID_24_"  style="overflow:visible;"/>
			</clipPath>
			<path style="opacity:0.5;clip-path:url(#XMLID_00000067933230694498316770000002062706099278976395_);fill:#FFFFFF;" d="
				M176.672,355.961c0,0,28.897,32.74,40.795,31.49c11.898-1.25-37.658-31.754-37.658-31.754L176.672,355.961z"/>
			
				<use xlink:href="#XMLID_24_"  style="overflow:visible;fill:none;stroke:#263238;stroke-linecap:round;stroke-linejoin:round;stroke-miterlimit:10;"/>
		</g>
		<g>
			<defs>
				<path id="XMLID_23_" d="M189.729,354.145c0,0,40.558,32.035,51.295,30.237c10.737-1.799-48.942-31.02-48.942-31.02
					L189.729,354.145z"/>
			</defs>
			<use xlink:href="#XMLID_23_"  style="overflow:visible;fill:#92E3A9;"/>
			<clipPath id="XMLID_00000007410288476909600070000007132240407381961612_">
				<use xlink:href="#XMLID_23_"  style="overflow:visible;"/>
			</clipPath>
			<path style="opacity:0.5;clip-path:url(#XMLID_00000007410288476909600070000007132240407381961612_);fill:#FFFFFF;" d="
				M189.729,354.145c0,0,40.558,32.035,51.295,30.237c10.737-1.799-48.942-31.02-48.942-31.02L189.729,354.145z"/>
			
				<use xlink:href="#XMLID_23_"  style="overflow:visible;fill:none;stroke:#263238;stroke-linecap:round;stroke-linejoin:round;stroke-miterlimit:10;"/>
		</g>
		<g>
			<defs>
				<path id="XMLID_22_" d="M200.73,263.364c-1.482-6.511-8.061-8.38-8.061-8.38s-20.402,15.872-35.197,20.252
					c-7.127,0.028-14.515,0.655-20.052-0.509c-12.596-2.647-17.106,5.154-9.887,27.935c7.219,22.781,9.825,52.163,9.825,52.163
					c45.848,2.116,54.233-2.549,54.233-2.549c-1.479-19.094-5.54-56.416-12.346-68.966
					C191.252,274.34,200.73,263.364,200.73,263.364z"/>
			</defs>
			<use xlink:href="#XMLID_22_"  style="overflow:visible;fill:#92E3A9;"/>
			<clipPath id="XMLID_00000177448257758413313940000017116604806140749467_">
				<use xlink:href="#XMLID_22_"  style="overflow:visible;"/>
			</clipPath>
			<path style="opacity:0.2;clip-path:url(#XMLID_00000177448257758413313940000017116604806140749467_);" d="M124.961,279.397
				c0,0-3.024,17.114,25.204,16.293c28.228-0.821-10.148,4.54-8.947,21.492c1.202,16.952,26.028,11.309,34.541,10.604
				c8.512-0.705-17.756,12.461-6.973,16.693c10.783,4.232,22.277-1.386,20.791-12.974c-1.486-11.589,14.309,4.51,14.309,4.51
				l5.073,11.991c0,0,2.735,10.68-17.249,15.312c-19.984,4.632-19.984,4.632-19.984,4.632h-30.344l-11.327-4.592
				c0,0-10.206,2.047-11.146-20.759c-0.94-22.806,2.586,1.881-0.94-22.806c-3.527-24.687-10.345-11.286-3.527-24.687
				c6.818-13.402,6.818-13.402,6.818-13.402L124.961,279.397z"/>
			<path style="opacity:0.2;clip-path:url(#XMLID_00000177448257758413313940000017116604806140749467_);" d="M164.365,292.157
				c0,0-10.876,3.8-12.413-1.917c-1.537-5.716,10.538,1.337,24.72-8.773c14.183-10.11,24.292-24.922,24.292-24.922l8.121,4.595v5.28
				l-29.84,16.89C179.245,283.31,170.713,289.523,164.365,292.157z"/>
			
				<use xlink:href="#XMLID_22_"  style="overflow:visible;fill:none;stroke:#263238;stroke-linecap:round;stroke-linejoin:round;stroke-miterlimit:10;"/>
		</g>
		<path style="fill:#263238;stroke:#263238;stroke-linecap:round;stroke-linejoin:round;stroke-miterlimit:10;" d="M137.685,225.79
			c-19.507,6.987-15.28,19.247-14.926,32.136h16.126l-1.2-3.524c0,0,11.861-6.081,8.804-15.583c0,0,2.116,2.449,2.586,5.976
			c0,0,4.676-7.171,17.856-5.976C166.931,238.82,163.614,216.503,137.685,225.79z"/>
		<path style="fill:#FFFFFF;stroke:#263238;stroke-linecap:round;stroke-linejoin:round;stroke-miterlimit:10;" d="M140.501,254.088
			c0,0-6.423-4.35-7.388,1.428c-0.966,5.778,4.626,10.051,9.254,8.104"/>
		<g>
			<path style="fill:none;stroke:#263238;stroke-width:0.75;stroke-linecap:round;stroke-linejoin:round;stroke-miterlimit:10;" d="
				M134.45,295.344c-1.165-0.182-2.225-0.384-3.169-0.587"/>
			<path style="fill:none;stroke:#263238;stroke-width:0.75;stroke-linecap:round;stroke-linejoin:round;stroke-miterlimit:10;" d="
				M177.73,284.426c-5.308,3.817-11.04,7.152-16.625,8.936c-8.92,2.85-17.162,3.019-23.391,2.399"/>
		</g>
		<g>
			<defs>
				<path id="XMLID_21_" d="M136.488,353.387c0,0,42.514,2.485,55.41-2.307c0,0,2.529,0.583,2.165,3.541
					c0,0-21.902,6.243-58.508,2.872C135.554,357.493,135.505,355.98,136.488,353.387z"/>
			</defs>
			<use xlink:href="#XMLID_21_"  style="overflow:visible;fill:#92E3A9;"/>
			<clipPath id="XMLID_00000129205128857013163460000005335571703381083784_">
				<use xlink:href="#XMLID_21_"  style="overflow:visible;"/>
			</clipPath>
			<path style="opacity:0.3;clip-path:url(#XMLID_00000129205128857013163460000005335571703381083784_);fill:#FFFFFF;" d="
				M136.488,353.387c0,0,42.514,2.485,55.41-2.307c0,0,2.529,0.583,2.165,3.541c0,0-21.902,6.243-58.508,2.872
				C135.554,357.493,135.505,355.98,136.488,353.387z"/>
			
				<use xlink:href="#XMLID_21_"  style="overflow:visible;fill:none;stroke:#263238;stroke-linecap:round;stroke-linejoin:round;stroke-miterlimit:10;"/>
		</g>
		<g>
			<path style="fill:none;stroke:#7F7F7F;stroke-linecap:round;stroke-linejoin:round;" d="M126.663,255.954
				c-0.08-1.34-0.21-2.73-0.388-4.19"/>
			<path style="fill:none;stroke:#7F7F7F;stroke-linecap:round;stroke-linejoin:round;" d="M119.836,285.459
				c4.411-10.238,6.654-16.979,6.902-24.845"/>
			<path style="fill:none;stroke:#7F7F7F;stroke-linecap:round;stroke-linejoin:round;" d="M117.636,306.699
				c-1.308-3.458-2.437-9.775,1.07-18.588"/>
			<g>
				<path style="fill:none;stroke:#7F7F7F;stroke-linecap:round;stroke-linejoin:round;" d="M122.909,304.729
					c-0.68-3.141-1.009-7.508-0.003-13.066"/>
				<path style="fill:none;stroke:#7F7F7F;stroke-linecap:round;stroke-linejoin:round;" d="M125.179,310.7
					c0,0-0.576-0.82-1.215-2.444"/>
			</g>
			<g>
				<path style="fill:none;stroke:#7F7F7F;stroke-linecap:round;stroke-linejoin:round;" d="M144.807,233.055
					c2.236,1.24,4.298,3.288,5.45,6.64"/>
				<path style="fill:none;stroke:#7F7F7F;stroke-linecap:round;stroke-linejoin:round;" d="M140.327,231.503
					c0.712,0.128,1.459,0.31,2.214,0.562"/>
			</g>
			<g>
				<path style="fill:none;stroke:#7F7F7F;stroke-linecap:round;stroke-linejoin:round;" d="M154.81,234.529
					c0.556,0.658,1.089,1.385,1.593,2.188"/>
				<path style="fill:none;stroke:#7F7F7F;stroke-linecap:round;stroke-linejoin:round;" d="M143.626,228.553
					c2.818,0.355,6.438,1.437,9.623,4.35"/>
			</g>
			<g>
				<path style="fill:none;stroke:#7F7F7F;stroke-linecap:round;stroke-linejoin:round;" d="M151.953,226.46
					c3.863,0.81,8.461,3.076,10.913,8.994"/>
				<path style="fill:none;stroke:#7F7F7F;stroke-linecap:round;stroke-linejoin:round;" d="M145.399,226.215
					c0,0,1.474-0.253,3.606-0.137"/>
			</g>
			<g>
				<path style="fill:none;stroke:#7F7F7F;stroke-linecap:round;stroke-linejoin:round;" d="M139.542,248.691
					c-0.186,0.719-0.426,1.482-0.727,2.29"/>
				<path style="fill:none;stroke:#7F7F7F;stroke-linecap:round;stroke-linejoin:round;" d="M130.038,236.717
					c0,0,11.141-0.268,9.92,9.816"/>
			</g>
		</g>
		<g>
			<path style="fill:none;stroke:#263238;stroke-width:0.75;stroke-linecap:round;stroke-linejoin:round;stroke-miterlimit:10;" d="
				M145.441,348.668c-0.596,0.246-1.201,0.492-1.815,0.737"/>
			<path style="fill:none;stroke:#263238;stroke-width:0.75;stroke-linecap:round;stroke-linejoin:round;stroke-miterlimit:10;" d="
				M170.544,334.363c-5.354,4.411-12.801,9.034-23.15,13.482"/>
		</g>
		<g>
			<path style="fill:none;stroke:#263238;stroke-width:0.75;stroke-linecap:round;stroke-linejoin:round;stroke-miterlimit:10;" d="
				M183.55,316.087c-0.574,2.319-1.722,5.264-3.962,8.588"/>
			<path style="fill:none;stroke:#263238;stroke-width:0.75;stroke-linecap:round;stroke-linejoin:round;stroke-miterlimit:10;" d="
				M184.015,310.7c0,0,0.14,0.786,0.048,2.181"/>
		</g>
	</g>
</g>
<g id="Toys">
	<g>
		<g>
			
				<rect x="352.567" y="388.517" style="fill:#263238;stroke:#263238;stroke-width:0.75;stroke-linecap:round;stroke-linejoin:round;stroke-miterlimit:10;" width="11.272" height="19.767"/>
			
				<rect x="330.948" y="388.517" style="fill:#92E3A9;stroke:#263238;stroke-linecap:round;stroke-linejoin:round;stroke-miterlimit:10;" width="28.961" height="19.767"/>
		</g>
		<g>
			
				<rect x="392.905" y="398.4" style="fill:#263238;stroke:#263238;stroke-width:0.75;stroke-linecap:round;stroke-linejoin:round;stroke-miterlimit:10;" width="11.272" height="9.883"/>
			
				<rect x="371.286" y="398.4" style="fill:#92E3A9;stroke:#263238;stroke-linecap:round;stroke-linejoin:round;stroke-miterlimit:10;" width="28.961" height="9.883"/>
		</g>
		<g>
			
				<rect x="365.082" y="378.777" style="fill:#263238;stroke:#263238;stroke-width:0.75;stroke-linecap:round;stroke-linejoin:round;stroke-miterlimit:10;" width="11.272" height="9.883"/>
			
				<rect x="343.463" y="378.777" style="fill:#999999;stroke:#263238;stroke-linecap:round;stroke-linejoin:round;stroke-miterlimit:10;" width="28.961" height="9.883"/>
		</g>
		<g>
			
				<rect x="368.753" y="350.947" style="fill:#263238;stroke:#263238;stroke-linecap:round;stroke-linejoin:round;stroke-miterlimit:10;" width="7.342" height="27.83"/>
			
				<rect x="365.082" y="350.947" style="fill:#92E3A9;stroke:#263238;stroke-linecap:round;stroke-linejoin:round;stroke-miterlimit:10;" width="7.342" height="27.83"/>
		</g>
		<g>
			
				<rect x="392.905" y="360.686" style="fill:#263238;stroke:#263238;stroke-linecap:round;stroke-linejoin:round;stroke-miterlimit:10;" width="7.342" height="27.83"/>
			
				<rect x="389.234" y="360.686" style="fill:#92E3A9;stroke:#263238;stroke-linecap:round;stroke-linejoin:round;stroke-miterlimit:10;" width="7.342" height="27.83"/>
		</g>
		<g>
			
				<rect x="394.629" y="351.756" style="fill:#263238;stroke:#263238;stroke-linecap:round;stroke-linejoin:round;stroke-miterlimit:10;" width="10.791" height="8.93"/>
			
				<rect x="389.234" y="351.756" style="fill:#858585;stroke:#263238;stroke-linecap:round;stroke-linejoin:round;stroke-miterlimit:10;" width="10.791" height="8.93"/>
		</g>
		<g>
			
				<rect x="405.42" y="388.661" style="fill:#999999;stroke:#263238;stroke-linecap:round;stroke-linejoin:round;stroke-miterlimit:10;" width="11.272" height="9.883"/>
			
				<rect x="383.801" y="388.661" style="fill:#858585;stroke:#263238;stroke-linecap:round;stroke-linejoin:round;stroke-miterlimit:10;" width="28.961" height="9.883"/>
		</g>
		<g>
			<polygon style="fill:#858585;stroke:#263238;stroke-linecap:round;stroke-linejoin:round;stroke-miterlimit:10;" points="
				387.314,329.533 381.322,329.533 359.909,350.947 408.727,350.947 			"/>
			<polygon style="fill:#92E3A9;stroke:#263238;stroke-linecap:round;stroke-linejoin:round;stroke-miterlimit:10;" points="
				359.909,350.947 381.322,329.533 402.736,350.947 			"/>
		</g>
	</g>
</g>
</svg>
